<?xml version="1.0" encoding="utf-8"?>
<!-- Generator: Adobe Illustrator 19.1.0, SVG Export Plug-In . SVG Version: 6.00 Build 0)  -->
<svg version="1.1" id="Слой_1" xmlns="http://www.w3.org/2000/svg" xmlns:xlink="http://www.w3.org/1999/xlink" x="0px" y="0px"
	 viewBox="15 -15 180 180" enable-background="new 15 -15 180 180" xml:space="preserve">
<path fill="none" stroke="#F37421" stroke-width="2" stroke-linecap="round" stroke-miterlimit="10" d="M87.7,99.9
	c0,0-8.7-3.7-7.2-9.8c1.7-7,10.9-4,12.4-9.3c1.4-4.8-2.6-6.4-2.6-6.4"/>
<path fill="none" stroke="#F37421" stroke-width="2" stroke-linecap="round" stroke-miterlimit="10" d="M53.6,115.4h-5
	c-0.9,0-1.6-0.7-1.6-1.6v-4c0-0.9,0.7-1.6,1.6-1.6h5c0.9,0,1.6,0.7,1.6,1.6v4C55.2,114.7,54.5,115.4,53.6,115.4z"/>
<path fill="none" stroke="#F37421" stroke-width="2" stroke-linecap="round" stroke-miterlimit="10" d="M68.6,115.4h-5
	c-0.9,0-1.6-0.7-1.6-1.6v-4c0-0.9,0.7-1.6,1.6-1.6h5c0.9,0,1.6,0.7,1.6,1.6v4C70.2,114.7,69.5,115.4,68.6,115.4z"/>
<path fill="none" stroke="#F37421" stroke-width="2" stroke-linecap="round" stroke-miterlimit="10" d="M98.6,115.4h-5
	c-0.9,0-1.6-0.7-1.6-1.6v-4c0-0.9,0.7-1.6,1.6-1.6h5c0.9,0,1.6,0.7,1.6,1.6v4C100.2,114.7,99.5,115.4,98.6,115.4z"/>
<path fill="none" stroke="#F37421" stroke-width="2" stroke-linecap="round" stroke-miterlimit="10" d="M83.6,115.4h-5
	c-0.9,0-1.6-0.7-1.6-1.6v-4c0-0.9,0.7-1.6,1.6-1.6h5c0.9,0,1.6,0.7,1.6,1.6v4C85.2,114.7,84.5,115.4,83.6,115.4z"/>
<path fill="none" stroke="#F37421" stroke-width="2" stroke-linecap="round" stroke-miterlimit="10" d="M113.6,115.4h-5
	c-0.9,0-1.6-0.7-1.6-1.6v-4c0-0.9,0.7-1.6,1.6-1.6h5c0.9,0,1.6,0.7,1.6,1.6v4C115.2,114.7,114.5,115.4,113.6,115.4z"/>
<path fill="none" stroke="#F37421" stroke-width="2" stroke-linecap="round" stroke-miterlimit="10" d="M128.6,115.4h-5
	c-0.9,0-1.6-0.7-1.6-1.6v-4c0-0.9,0.7-1.6,1.6-1.6h5c0.9,0,1.6,0.7,1.6,1.6v4C130.2,114.7,129.5,115.4,128.6,115.4z"/>
<path fill="none" stroke="#F37421" stroke-width="2" stroke-linecap="round" stroke-miterlimit="10" d="M53.6,130.4h-5
	c-0.9,0-1.6-0.7-1.6-1.6v-4c0-0.9,0.7-1.6,1.6-1.6h5c0.9,0,1.6,0.7,1.6,1.6v4C55.2,129.7,54.5,130.4,53.6,130.4z"/>
<path fill="none" stroke="#F37421" stroke-width="2" stroke-linecap="round" stroke-miterlimit="10" d="M68.6,130.4h-5
	c-0.9,0-1.6-0.7-1.6-1.6v-4c0-0.9,0.7-1.6,1.6-1.6h5c0.9,0,1.6,0.7,1.6,1.6v4C70.2,129.7,69.5,130.4,68.6,130.4z"/>
<path fill="none" stroke="#F37421" stroke-width="2" stroke-linecap="round" stroke-miterlimit="10" d="M98.6,130.4h-5
	c-0.9,0-1.6-0.7-1.6-1.6v-4c0-0.9,0.7-1.6,1.6-1.6h5c0.9,0,1.6,0.7,1.6,1.6v4C100.2,129.7,99.5,130.4,98.6,130.4z"/>
<path fill="none" stroke="#F37421" stroke-width="2" stroke-linecap="round" stroke-miterlimit="10" d="M83.6,130.4h-5
	c-0.9,0-1.6-0.7-1.6-1.6v-4c0-0.9,0.7-1.6,1.6-1.6h5c0.9,0,1.6,0.7,1.6,1.6v4C85.2,129.7,84.5,130.4,83.6,130.4z"/>
<path fill="none" stroke="#F37421" stroke-width="2" stroke-linecap="round" stroke-miterlimit="10" d="M113.6,130.4h-5
	c-0.9,0-1.6-0.7-1.6-1.6v-4c0-0.9,0.7-1.6,1.6-1.6h5c0.9,0,1.6,0.7,1.6,1.6v4C115.2,129.7,114.5,130.4,113.6,130.4z"/>
<path fill="none" stroke="#F37421" stroke-width="2" stroke-linecap="round" stroke-miterlimit="10" d="M128.6,130.4h-5
	c-0.9,0-1.6-0.7-1.6-1.6v-4c0-0.9,0.7-1.6,1.6-1.6h5c0.9,0,1.6,0.7,1.6,1.6v4C130.2,129.7,129.5,130.4,128.6,130.4z"/>
<path fill="none" stroke="#F37421" stroke-width="2" stroke-linecap="round" stroke-miterlimit="10" d="M113.6,145.4h-5
	c-0.9,0-1.6-0.7-1.6-1.6v-4c0-0.9,0.7-1.6,1.6-1.6h5c0.9,0,1.6,0.7,1.6,1.6v4C115.2,144.7,114.5,145.4,113.6,145.4z"/>
<path fill="none" stroke="#F37421" stroke-width="2" stroke-linecap="round" stroke-miterlimit="10" d="M128.6,145.4h-5
	c-0.9,0-1.6-0.7-1.6-1.6v-4c0-0.9,0.7-1.6,1.6-1.6h5c0.9,0,1.6,0.7,1.6,1.6v4C130.2,144.7,129.5,145.4,128.6,145.4z"/>
<path fill="none" stroke="#F37421" stroke-width="2" stroke-linecap="round" stroke-miterlimit="10" d="M98.6,145.4h-29
	c-0.9,0-1.6-0.7-1.6-1.6v-4c0-0.9,0.7-1.6,1.6-1.6h29c0.9,0,1.6,0.7,1.6,1.6v4C100.2,144.7,99.5,145.4,98.6,145.4z"/>
<path fill="none" stroke="#F37421" stroke-width="2" stroke-linecap="round" stroke-miterlimit="10" d="M59.6,145.4h-11
	c-0.9,0-1.6-0.7-1.6-1.6v-4c0-0.9,0.7-1.6,1.6-1.6h11c0.9,0,1.6,0.7,1.6,1.6v4C61.2,144.7,60.5,145.4,59.6,145.4z"/>
</svg>
