<?xml version="1.0" encoding="utf-8"?>
<!-- Generator: Adobe Illustrator 19.1.0, SVG Export Plug-In . SVG Version: 6.00 Build 0)  -->
<svg version="1.2" baseProfile="tiny" id="Слой_1"
	 xmlns="http://www.w3.org/2000/svg" xmlns:xlink="http://www.w3.org/1999/xlink" x="0px" y="0px" viewBox="0 0 196 27"
	 xml:space="preserve">
<g id="E">
	<rect x="38.9" y="0" fill="#FFFFFF" width="6" height="27"/>
	<rect x="38.9" y="0.1" fill="#FFFFFF" width="18" height="5"/>
	<rect x="38.9" y="11" fill="#FFFFFF" width="18" height="5"/>
	<rect x="38.9" y="22" fill="#FFFFFF" width="18" height="5"/>
</g>
<g id="N">
	<rect y="0" fill="#FFFFFF" width="6" height="27"/>
	<polygon fill="#FFFFFF" points="0,0 6,0 26.9,23.9 26.9,27 20.9,27 0,3 	"/>
	<rect x="20.9" y="0" fill="#FFFFFF" width="6" height="27"/>
</g>
<g id="T">
	<g id="E_1_">
		<rect x="77.6" y="0" fill="#FFFFFF" width="6" height="27"/>
	</g>
	<g id="E_2_">
		<rect x="67.1" y="0.1" fill="#FFFFFF" width="27" height="5"/>
	</g>
</g>
<g id="L">
	<rect x="103.9" y="0" fill="#FFFFFF" width="6" height="27"/>
	<rect x="103.9" y="22" fill="#FFFFFF" width="19" height="5"/>
</g>
<g id="A">
	<polygon fill="#FFFFFF" points="129.8,27 141.4,0 147.7,0 136.7,27 	"/>
	<polygon fill="#FFFFFF" points="153,27 141.4,0 147.7,0 159.9,27 	"/>
	<rect x="138.8" y="16.6" fill="#FFFFFF" width="11.9" height="5"/>
</g>
<g id="B">
	<rect x="169.8" y="0" fill="#FFFFFF" width="6" height="27"/>
	<path fill="none" stroke="#FFFFFF" stroke-width="5" stroke-miterlimit="10" d="M169.8,2.4h10.8c3.1,0,5.6,2.5,5.6,5.6v0
		c0,3.1-2.5,5.6-5.6,5.6h-10.8"/>
	<path fill="none" stroke="#FFFFFF" stroke-width="5" stroke-miterlimit="10" d="M169.8,13.5h12.6c3.1,0,5.6,2.5,5.6,5.6v0
		c0,3.1-2.5,5.6-5.6,5.6h-12.6"/>
</g>
</svg>
